<svg id="visual" viewBox="0 0 960 100" width="960" height="100" xmlns="http://www.w3.org/2000/svg" xmlns:xlink="http://www.w3.org/1999/xlink" version="1.1"><path d="M0 30L22.8 31.7C45.7 33.3 91.3 36.7 137 39C182.7 41.3 228.3 42.7 274 41C319.7 39.3 365.3 34.7 411.2 33.2C457 31.7 503 33.3 548.8 33.7C594.7 34 640.3 33 686 32.3C731.7 31.7 777.3 31.3 823 32C868.7 32.7 914.3 34.3 937.2 35.2L960 36L960 101L937.2 101C914.3 101 868.7 101 823 101C777.3 101 731.7 101 686 101C640.3 101 594.7 101 548.8 101C503 101 457 101 411.2 101C365.3 101 319.7 101 274 101C228.3 101 182.7 101 137 101C91.3 101 45.7 101 22.8 101L0 101Z" fill="#ebebeb"></path><path d="M0 31L22.8 32.7C45.7 34.3 91.3 37.7 137 38.8C182.7 40 228.3 39 274 41.2C319.7 43.3 365.3 48.7 411.2 49.7C457 50.7 503 47.3 548.8 46.2C594.7 45 640.3 46 686 45.3C731.7 44.7 777.3 42.3 823 40.7C868.7 39 914.3 38 937.2 37.5L960 37L960 101L937.2 101C914.3 101 868.7 101 823 101C777.3 101 731.7 101 686 101C640.3 101 594.7 101 548.8 101C503 101 457 101 411.2 101C365.3 101 319.7 101 274 101C228.3 101 182.7 101 137 101C91.3 101 45.7 101 22.8 101L0 101Z" fill="#b3b6bb"></path><path d="M0 59L22.8 60C45.7 61 91.3 63 137 63.5C182.7 64 228.3 63 274 60.2C319.7 57.3 365.3 52.7 411.2 53.3C457 54 503 60 548.8 60.8C594.7 61.7 640.3 57.3 686 56.7C731.7 56 777.3 59 823 61.7C868.7 64.3 914.3 66.7 937.2 67.8L960 69L960 101L937.2 101C914.3 101 868.7 101 823 101C777.3 101 731.7 101 686 101C640.3 101 594.7 101 548.8 101C503 101 457 101 411.2 101C365.3 101 319.7 101 274 101C228.3 101 182.7 101 137 101C91.3 101 45.7 101 22.8 101L0 101Z" fill="#7e838e"></path><path d="M0 68L22.8 67.3C45.7 66.7 91.3 65.3 137 67.2C182.7 69 228.3 74 274 75.3C319.7 76.7 365.3 74.3 411.2 72.7C457 71 503 70 548.8 70.3C594.7 70.7 640.3 72.3 686 71.7C731.7 71 777.3 68 823 67.5C868.7 67 914.3 69 937.2 70L960 71L960 101L937.2 101C914.3 101 868.7 101 823 101C777.3 101 731.7 101 686 101C640.3 101 594.7 101 548.8 101C503 101 457 101 411.2 101C365.3 101 319.7 101 274 101C228.3 101 182.7 101 137 101C91.3 101 45.7 101 22.8 101L0 101Z" fill="#4c5463"></path><path d="M0 77L22.8 78.5C45.7 80 91.3 83 137 85.2C182.7 87.3 228.3 88.7 274 89.2C319.7 89.7 365.3 89.3 411.2 88.5C457 87.7 503 86.3 548.8 86.3C594.7 86.3 640.3 87.7 686 86.7C731.7 85.7 777.3 82.3 823 82C868.7 81.7 914.3 84.3 937.2 85.7L960 87L960 101L937.2 101C914.3 101 868.7 101 823 101C777.3 101 731.7 101 686 101C640.3 101 594.7 101 548.8 101C503 101 457 101 411.2 101C365.3 101 319.7 101 274 101C228.3 101 182.7 101 137 101C91.3 101 45.7 101 22.8 101L0 101Z" fill="#1e293b"></path></svg>